<svg xmlns="http://www.w3.org/2000/svg" xmlns:xlink="http://www.w3.org/1999/xlink" version="1.1" x="0px" y="0px" viewBox="0 0 100 125" style="enable-background:new 0 0 100 100;" xml:space="preserve"><style type="text/css">
	.st0{stroke:#000000;stroke-miterlimit:10;}
</style><circle cx="24" cy="44.6" r="9.4"/><path class="st0" d="M34.9,77.4l-23.5,0V66.9c0-0.9,0.1-1.9,0.3-2.8c0.5-2.3,1.6-6.6,5.2-6.6c2.8,0,5.6,1.6,6.7,3.6  c0.7,1.3,2.5,1.6,3.6,0.6l4.9-4.2c0.2-0.2,0.4-0.3,0.7-0.4l19.7-7.7c0.8-0.3,2.8-1.1,3.9,1.5c1.2,2.8-0.9,3.6-1.7,4.1l-18.6,9.7  c-1.3,0.7-1.2,3.3-1.2,4.8C34.9,72.6,34.9,77.3,34.9,77.4z"/><g><g><path d="M34.5,27.2c0-2.5,0-5,0-7.5c-0.4,0.3-0.7,0.6-1.1,0.9c19.3,0,38.6,0,57.9,0c-0.3-0.4-0.6-0.7-0.9-1.1c0,14.7,0,29.3,0,44    c0.4-0.3,0.7-0.6,1.1-0.9c-11.7,0-23.5,0-35.2,0c-1.3,0-1.4,2-0.1,2c11.7,0,23.5,0,35.2,0c0.5,0,1.1-0.4,1.1-0.9    c0-14.7,0-29.3,0-44c0-0.5-0.4-1.1-0.9-1.1c-19.3,0-38.6,0-57.9,0c-0.5,0-1.1,0.4-1.1,0.9c0,2.5,0,5,0,7.5    C32.5,28.3,34.5,28.5,34.5,27.2L34.5,27.2z"/></g></g><text x="0" y="115" fill="#000000" font-size="5px" font-weight="bold" font-family="'Helvetica Neue', Helvetica, Arial-Unicode, Arial, Sans-serif">Created by Peter ParniÄan</text><text x="0" y="120" fill="#000000" font-size="5px" font-weight="bold" font-family="'Helvetica Neue', Helvetica, Arial-Unicode, Arial, Sans-serif">from the Noun Project</text></svg>